Coordinates
version=1
nRows=14
nColumns=24
inDegrees=yes

Units are S.I. units (second, meters, Newtons, ...)
Angles are in degrees.

endheader
time	pelvis_tilt	pelvis_list	pelvis_rotation	pelvis_tx	pelvis_ty	pelvis_tz	hip_flexion_r	hip_adduction_r	hip_rotation_r	knee_angle_r	ankle_angle_r	subtalar_angle_r	mtp_angle_r	hip_flexion_l	hip_adduction_l	hip_rotation_l	knee_angle_l	ankle_angle_l	subtalar_angle_l	mtp_angle_l	lumbar_extension	lumbar_bending	lumbar_rotation
      0.65800000	     -1.08208753	     -1.53341821	     -1.39620599	     -0.53598312	      1.06300432	      0.34341352	     13.46334902	      5.60655086	     -5.14767266	    -16.80125106	      5.20968393	     -1.69241819	      3.23880708	     18.89806207	     -2.69141469	     -1.51453690	    -67.75150297	      6.50041096	      2.69582220	      8.74110531	      1.75917961	      5.86420144	      1.60441659
      0.66216667	     -1.07030899	     -1.49534742	     -1.42960958	     -0.53079455	      1.06371527	      0.34363377	     13.08180120	      5.57460790	     -5.11397955	    -16.69262516	      5.40708295	     -1.56423189	      3.27270171	     19.44771486	     -2.61235105	     -1.33029472	    -67.47705271	      6.98808027	      2.52731539	      8.77058753	      1.72623898	      5.81536678	      1.70300552
      0.66633333	     -1.05765202	     -1.47804967	     -1.44196516	     -0.52559610	      1.06441182	      0.34393906	     12.68374328	      5.57606021	     -5.04293089	    -16.54688622	      5.55590817	     -1.47982063	      3.29372154	     19.98364243	     -2.56363641	     -1.13792043	    -67.12385095	      7.35536250	      2.35522822	      8.78711082	      1.70286789	      5.73342006	      1.77785565
      0.67050000	     -1.03452070	     -1.43225477	     -1.47408789	     -0.52039321	      1.06512117	      0.34411936	     12.28385817	      5.53388965	     -5.01031309	    -16.42600891	      5.74610492	     -1.40005607	      3.31771001	     20.47822877	     -2.46842799	     -0.96979203	    -66.67737748	      7.81418563	      2.11182550	      8.80427789	      1.67345575	      5.68563294	      1.85885293
      0.67466667	     -1.03394947	     -1.38733715	     -1.50842288	     -0.51517204	      1.06577908	      0.34430753	     11.90289438	      5.49572624	     -4.96254866	    -16.29938223	      5.92047721	     -1.31303435	      3.34253196	     20.97535128	     -2.37524717	     -0.81106081	    -66.14713948	      8.18920373	      1.86008415	      8.81777087	      1.63841072	      5.63783846	      1.94240486
      0.67883333	     -1.03165581	     -1.33519322	     -1.52843096	     -0.51002961	      1.06639987	      0.34446082	     11.51950246	      5.44704929	     -4.86964082	    -16.15698649	      6.02274777	     -1.27736482	      3.35426882	     21.45922292	     -2.26698763	     -0.62975696	    -65.53611374	      8.40986589	      1.69432198	      8.82226606	      1.59974594	      5.60098045	      1.98711727
      0.68300000	     -1.00487277	     -1.30292907	     -1.54870843	     -0.50472880	      1.06708076	      0.34472118	     11.08912803	      5.43406857	     -4.83096274	    -15.98277530	      6.21995945	     -1.22999664	      3.37393528	     21.87749184	     -2.19429669	     -0.49346233	    -64.84102928	      8.80816688	      1.31883731	      8.82738343	      1.62444526	      5.50284413	      2.07774177
      0.68716667	     -0.99367984	     -1.25150251	     -1.58057807	     -0.49949628	      1.06769889	      0.34487948	     10.68605961	      5.39033333	     -4.76637556	    -15.83086396	      6.38733236	     -1.17966814	      3.39423360	     22.29343502	     -2.09120072	     -0.35927441	    -64.06410696	      9.08522800	      0.94542272	      8.82743519	      1.59314779	      5.45166966	      2.16006702
      0.69133333	     -0.97952906	     -1.21008850	     -1.60210835	     -0.49425566	      1.06828275	      0.34504008	     10.27086997	      5.36129549	     -4.68571790	    -15.65966247	      6.53510393	     -1.14984876	      3.41334478	     22.68568264	     -1.99734795	     -0.22063018	    -63.21338874	      9.28864463	      0.56606030	      8.82269815	      1.56316695	      5.39661885	      2.24091139
      0.69550000	     -0.95455710	     -1.16227798	     -1.62667904	     -0.48900861	      1.06886925	      0.34518351	      9.84124521	      5.32458291	     -4.60203134	    -15.47922700	      6.68052889	     -1.14146998	      3.43356890	     23.03946951	     -1.89567738	     -0.09594481	    -62.27936017	      9.46109250	      0.11918834	      8.81230310	      1.53245448	      5.34155686	      2.32677858
      0.69966667	     -0.94538286	     -1.10440564	     -1.67706715	     -0.48382810	      1.06938753	      0.34528871	      9.44412561	      5.27566085	     -4.51467129	    -15.32551857	      6.83257456	     -1.14654815	      3.46586697	     23.38906410	     -1.78572221	     -0.00814478	    -61.27113237	      9.52912722	     -0.52350796	      8.78690409	      1.39101230	      5.27802057	      2.44418269
      0.70383333	     -0.95311501	     -1.08372402	     -1.66157060	     -0.47850814	      1.06985523	      0.34545332	      9.02470462	      5.27773507	     -4.40674790	    -15.09519199	      6.90930211	     -1.16428227	      3.47697075	     23.73343542	     -1.71046225	      0.14976235	    -60.19799463	      9.61465414	     -0.76021557	      8.77473179	      1.46334347	      5.26446182	      2.49506657
      0.70800000	     -0.94196216	     -1.04405940	     -1.67269778	     -0.47316714	      1.07034145	      0.34556469	      8.58762484	      5.25581121	     -4.29465940	    -14.87808922	      7.02692920	     -1.24758374	      3.49033762	     24.02004071	     -1.61542829	      0.27050237	    -59.03927736	      9.71050806	     -1.21833592	      8.75229174	      1.49882696	      5.20273408	      2.56083729
      0.71216667	     -0.92956458	     -1.00702427	     -1.68842605	     -0.46787230	      1.07077658	      0.34567992	      8.15157501	      5.24009049	     -4.15667806	    -14.65698342	      7.12924929	     -1.35102665	      3.50356287	     24.28626465	     -1.52654040	      0.37708257	    -57.81593012	      9.72132110	     -1.73770107	      8.72132789	      1.49221464	      5.15428613	      2.62528077
